<svg width="22" height="22" viewBox="0 0 22 22" fill="none" xmlns="http://www.w3.org/2000/svg">
<path d="M21.5 11C21.5 16.799 16.799 21.5 11 21.5C5.20101 21.5 0.5 16.799 0.5 11C0.5 5.20101 5.20101 0.5 11 0.5C16.799 0.5 21.5 5.20101 21.5 11Z" fill="#0593F5"/>
<path fill-rule="evenodd" clip-rule="evenodd" d="M11 19.75C15.8325 19.75 19.75 15.8325 19.75 11C19.75 6.16751 15.8325 2.25 11 2.25C6.16751 2.25 2.25 6.16751 2.25 11C2.25 15.8325 6.16751 19.75 11 19.75ZM11 21.5C16.799 21.5 21.5 16.799 21.5 11C21.5 5.20101 16.799 0.5 11 0.5C5.20101 0.5 0.5 5.20101 0.5 11C0.5 16.799 5.20101 21.5 11 21.5Z" fill="white"/>
<path fill-rule="evenodd" clip-rule="evenodd" d="M10.125 14.5C10.125 14.9832 10.5168 15.375 11 15.375C11.4832 15.375 11.875 14.9832 11.875 14.5V11.875H14.5C14.9832 11.875 15.375 11.4832 15.375 11C15.375 10.5168 14.9832 10.125 14.5 10.125H11.875V7.5C11.875 7.01675 11.4832 6.625 11 6.625C10.5168 6.625 10.125 7.01675 10.125 7.5V10.125H7.5C7.01675 10.125 6.625 10.5168 6.625 11C6.625 11.4832 7.01675 11.875 7.5 11.875H10.125V14.5Z" fill="white"/>
</svg>
