<svg width="24" height="25" viewBox="0 0 24 25" fill="none" xmlns="http://www.w3.org/2000/svg">
<g clip-path="url(#clip0_1603_851)">
<path d="M3.875 3.24438C3.875 3.17535 3.93096 3.11938 4 3.11938H20C20.069 3.11938 20.125 3.17535 20.125 3.24438V20.9364C20.125 20.9752 20.1151 20.9945 20.1069 21.0064C20.0962 21.022 20.0771 21.0392 20.0497 21.0511C20.0223 21.063 19.9967 21.0651 19.9779 21.0623C19.9637 21.0601 19.9429 21.0542 19.9145 21.0276L13.5202 15.0339C12.8139 14.3719 11.7198 14.3563 10.9951 14.9979L4.08286 21.1171C4.05461 21.1422 4.03382 21.1478 4.01925 21.1497C4.00047 21.1521 3.97531 21.1495 3.94868 21.1375C3.92205 21.1255 3.90345 21.1084 3.89281 21.0927C3.88455 21.0806 3.875 21.0613 3.875 21.0236V3.24438Z" stroke="#262626" stroke-width="1.75"/>
</g>
<defs>
<clipPath id="clip0_1603_851">
<rect width="24" height="24" fill="white" transform="translate(0 0.244385)"/>
</clipPath>
</defs>
</svg>
