<svg width="24" height="25" viewBox="0 0 24 25" fill="none" xmlns="http://www.w3.org/2000/svg">
<g clip-path="url(#clip0_1606_1005)">
<path fill-rule="evenodd" clip-rule="evenodd" d="M7.50004 4.21298C4.85936 4.21298 2.7955 6.27684 2.7955 8.91752C2.7955 10.5462 3.52081 12.0862 4.95952 13.8452C6.40736 15.6153 8.49338 17.5087 11.0844 19.8583L11.0855 19.8593L12.0021 20.6937L12.9151 19.8688L12.9162 19.8678C15.5069 17.5136 17.5926 15.6179 19.0404 13.8466C20.4793 12.0862 21.2046 10.5462 21.2046 8.91752C21.2046 6.27684 19.1407 4.21298 16.5 4.21298C15.0009 4.21298 13.5496 4.91475 12.6057 6.02325C12.4545 6.20073 12.2332 6.30298 12 6.30298C11.7669 6.30298 11.5456 6.20073 11.3944 6.02325C10.4505 4.91475 8.99919 4.21298 7.50004 4.21298ZM1.20459 8.91752C1.20459 5.39821 3.98073 2.62207 7.50004 2.62207C9.1804 2.62207 10.7945 3.28285 12 4.36939C13.2056 3.28285 14.8197 2.62207 16.5 2.62207C20.0194 2.62207 22.7955 5.39821 22.7955 8.91752C22.7955 11.0688 21.8208 12.9588 20.2722 14.8534C18.7485 16.7175 16.5887 18.6802 14.0638 20.9746L13.9833 21.0478L12.5333 22.3578C12.2296 22.6322 11.7672 22.6313 11.4646 22.3557L10.0146 21.0357L9.9623 20.9884C7.42626 18.6887 5.257 16.7217 3.72807 14.8524C2.17928 12.9589 1.20459 11.0688 1.20459 8.91752Z" fill="#262626"/>
</g>
<defs>
<clipPath id="clip0_1606_1005">
<rect width="24" height="24" fill="white" transform="translate(0 0.5)"/>
</clipPath>
</defs>
</svg>
