<svg width="24" height="25" viewBox="0 0 24 25" fill="none" xmlns="http://www.w3.org/2000/svg">
<path d="M12 18.875C11.5168 18.875 11.125 18.4832 11.125 18V13.375H6.5C6.01675 13.375 5.625 12.9832 5.625 12.5C5.625 12.0168 6.01675 11.625 6.5 11.625H11.125V7C11.125 6.51675 11.5168 6.125 12 6.125C12.4832 6.125 12.875 6.51675 12.875 7V11.625H17.5C17.9832 11.625 18.375 12.0168 18.375 12.5C18.375 12.9832 17.9832 13.375 17.5 13.375H12.875V18C12.875 18.4832 12.4832 18.875 12 18.875Z" fill="#262626"/>
<path fill-rule="evenodd" clip-rule="evenodd" d="M6.5 2C3.73858 2 1.5 4.23858 1.5 7V18C1.5 20.7614 3.73858 23 6.5 23H17.5C20.2614 23 22.5 20.7614 22.5 18V7C22.5 4.23858 20.2614 2 17.5 2H6.5ZM17.5 3.75H6.5C4.70507 3.75 3.25 5.20507 3.25 7V18C3.25 19.7949 4.70507 21.25 6.5 21.25H17.5C19.2949 21.25 20.75 19.7949 20.75 18V7C20.75 5.20507 19.2949 3.75 17.5 3.75Z" fill="#262626"/>
</svg>
