<svg width="24" height="25" viewBox="0 0 24 25" fill="none" xmlns="http://www.w3.org/2000/svg">
<path fill-rule="evenodd" clip-rule="evenodd" d="M22.6764 5.5625C22.8327 5.29178 22.8327 4.95823 22.6764 4.6875C22.5201 4.41678 22.2312 4.25 21.9186 4.25L2.00002 4.25C1.65241 4.25 1.33777 4.45576 1.19841 4.77421C1.05906 5.09266 1.12142 5.4634 1.35728 5.71873L8.15135 13.0735L11.1238 22.6348C11.2269 22.9667 11.5168 23.2061 11.8623 23.2446C12.2078 23.2831 12.5433 23.1135 12.7171 22.8125L22.6764 5.5625ZM18.653 6L3.99951 6L9.09639 11.5175L18.653 6ZM9.97139 13.0331L12.2013 20.2059L19.5281 7.51553L9.97139 13.0331Z" fill="#262626"/>
</svg>
